# AST/ASF file generated using VICON BodyLanguage
# -----------------------------------------------
:version 1.10
:name VICON
:units
  mass 1.0
  length 0.45
  angle deg
:documentation
   .ast/.asf automatically generated from VICON data using
   VICON BodyBuilder and BodyLanguage model FoxedUp or BRILLIANT.MOD
:root
   order TX TY TZ RX RY RZ
   axis XYZ
   position 0 0 0  
   orientation 0 0 0 
:bonedata
  begin
     id 1 
     name lhipjoint
     direction 0.575328 -0.747301 0.332475 
     length 2.40933 
     axis 0 0 0  XYZ
  end
  begin
     id 2 
     name lfemur
     direction 0.34202 -0.939693 0  
     length 7.31453  
     axis 0 0 20  XYZ
    dof rx ry rz
    limits (-160.0 20.0)
           (-70.0 70.0)
           (-60.0 70.0)
  end
  begin
     id 3 
     name ltibia
     direction 0.34202 -0.939693 0   
     length 7.82185   
     axis 0 0 20   XYZ
    dof rx
    limits (-10.0 170.0)
  end
  begin
     id 4 
     name lfoot
     direction 0.0795993 -0.218697 0.972541   
     length 2.19173   
     axis -90 7.62852e-016 20   XYZ
    dof rx rz
    limits (-45.0 90.0)
           (-70.0 20.0)
  end
  begin
     id 5 
     name ltoes
     direction 1.53537e-011 -4.21894e-011 1   
     length 1.10023   
     axis -90 7.62852e-016 20   XYZ
    dof rx
    limits (-90.0 20.0)
  end
  begin
     id 6 
     name rhipjoint
     direction -0.513884 -0.783789 0.348708   
     length 2.29716  
     axis 0 0 0  XYZ 
  end
  begin
     id 7 
     name rfemur
     direction -0.34202 -0.939693 0   
     length 7.59573   
     axis 0 0 -20   XYZ
    dof rx ry rz
    limits (-160.0 20.0)
           (-70.0 70.0)
           (-70.0 60.0)
  end
  begin
     id 8 
     name rtibia
     direction -0.34202 -0.939693 0   
     length 7.66402   
     axis 0 0 -20   XYZ
    dof rx
    limits (-10.0 170.0)
 end
 begin
     id 9 
     name rfoot
     direction -0.137793 -0.378584 0.915253   
     length 2.27056  
     axis -90 -7.62852e-016 -20   XYZ
    dof rx rz
    limits (-45.0 90.0)
           (-20.0 70.0)
  end
  begin
     id 10 
     name rtoes
     direction -1.53493e-011 -4.22159e-011 1   
     length 1.11766   
     axis -90 -7.62852e-016 -20   XYZ
    dof rx
    limits (-90.0 20.0)
  end
  begin
     id 11 
     name lowerback
     direction -0.00732775 0.998356 -0.05685   
     length 2.16513   
     axis 0 0 0   XYZ
    dof rx ry rz
    limits (-20.0 45.0)
           (-30.0 30.0)
           (-30.0 30.0)
  end
  begin
     id 12 
     name upperback
     direction 0.0218081 0.999627 -0.0164647   
     length 2.16755   
     axis 0 0 0   XYZ
    dof rx ry rz
    limits (-20.0 45.0)
           (-30.0 30.0)
           (-30.0 30.0)
  end
  begin
     id 13 
     name thorax
     direction 0.02365 0.999661 0.0108914   
     length 2.16932   
     axis 0 0 0   XYZ
    dof rx ry rz
    limits (-20.0 45.0)
           (-30.0 30.0)
           (-30.0 30.0)
  end
  begin
     id 14 
     name lowerneck
     direction -0.0523929 0.978385 0.200044   
     length 1.63877   
     axis 0 0 0   XYZ
    dof rx ry rz
    limits (-20.0 45.0)
           (-30.0 30.0)
           (-30.0 30.0)
  end
  begin
     id 15 
     name upperneck
     direction 0.0448674 0.981321 -0.187074   
     length 1.69014   
     axis 0 0 0   XYZ
    dof rx ry rz
    limits (-20.0 45.0)
           (-30.0 30.0)
           (-30.0 30.0)
  end
  begin
     id 16
     name head
     direction 0.0199089 0.996118 -0.0857429  
     length 1.70094  
     axis 0 0 0   XYZ
    dof rx ry rz
    limits (-20.0 45.0)
           (-30.0 30.0)
           (-30.0 30.0)
  end
  begin
     id 17 
     name lclavicle
     direction 0.940366 0.30191 -0.156722  
     length 3.37521  
     axis 0 0 0   XYZ
    dof ry rz
    limits (-20.0 10.0)
           (0.0 20.0)
  end
  begin
     id 18 
     name lhumerus
     direction 1 -4.4897e-011 -1.7911e-027   
     length 5.25287   
     axis 180 -30 -90   XYZ
    dof rx ry rz
    limits (-60.0 90.0)
           (-90.0 90.0)
           (-90.0 90.0)
  end
  begin
     id 19
     name lradius
     direction 1 -4.48951e-011 1.04424e-027   
     length 3.51014   
     axis 180 -30 -90   XYZ
    dof rx
    limits (-10.0 170.0)
  end
  begin
     id 20
     name lwrist
     direction 1 -4.48997e-011 -9.5942e-028   
     length 1.75507   
     axis 8.48502e-016 90 90   XYZ
    dof ry
    limits (-180.0 0.0)
 end
  begin
     id 21 
     name lhand
     direction 1 -4.48831e-011 -1.90777e-027   
     length 0.706179   
     axis 1.22306e-015 90 90   XYZ
    dof rx rz
    limits (-90.0 90.0)
           (-45.0 45.0)
  end
  begin
     id 22 
     name lfingers
     direction 1 -4.49108e-011 -3.85244e-027   
     length 0.569339   
     axis 2.44611e-015 90 90   XYZ
    dof rx
    limits (0.0 90.0)
  end
  begin
     id 23
     name lthumb
     direction 0.707107 -6.34953e-011 0.707107   
     length 0.817461   
     axis -90 45 -1.62303e-014   XYZ
    dof rx rz
    limits (-45.0 45.0)
           (-45.0 45.0)
  end
  begin
     id 24 
     name rclavicle
     direction -0.905329 0.382405 -0.184787   
     length 3.30787  
     axis 0 0 0   XYZ 
    dof ry rz
    limits (-10.0 20.0)
           (-20.0 0.0)
  end
  begin
     id 25 
     name rhumerus
     direction -1 -4.48953e-011 -9.15316e-029  
     length 5.28721   
     axis 180 30 90   XYZ
    dof rx ry rz
    limits (-90.0 60.0)
           (-90.0 90.0)
           (-90.0 90.0)
  end
  begin
     id 26 
     name rradius
     direction -1 -4.48987e-011 9.37824e-028   
     length 3.50544   
     axis 180 30 90   XYZ
    dof rx
    limits (-10.0 170.0)
  end
  begin
     id 27 
     name rwrist
     direction -1 -4.48967e-011 -9.58414e-028   
     length 1.75272   
     axis 8.48502e-016 -90 -90   XYZ
    dof ry
    limits (-180.0 0.0)
  end
  begin
     id 28
     name rhand
     direction -1 -4.48904e-011 -1.91266e-027   
     length 0.884996   
     axis 1.22306e-015 -90 -90   XYZ
    dof rx rz
    limits (-90.0 90.0)
           (-45.0 45.0)
  end
  begin
     id 29
     name rfingers
     direction -1 -4.4909e-011 -3.85015e-027   
     length 0.713507   
     axis 2.44611e-015 -90 -90   XYZ
    dof rx
    limits (0.0 90.0)
  end
  begin
     id 30
     name rthumb
     direction -0.707107 -6.34853e-011 0.707107   
     length 1.02446   
     axis -90 -45 1.62303e-014   XYZ
    dof rx rz
    limits (-45.0 45.0)
           (-45.0 45.0)
  end
:hierarchy
  begin
    root lhipjoint rhipjoint lowerback
    lhipjoint lfemur
    lfemur ltibia
    ltibia lfoot
    lfoot ltoes
    rhipjoint rfemur
    rfemur rtibia
    rtibia rfoot
    rfoot rtoes
    lowerback upperback
    upperback thorax
    thorax lowerneck lclavicle rclavicle
    lowerneck upperneck
    upperneck head
    lclavicle lhumerus
    lhumerus lradius
    lradius lwrist
    lwrist lhand lthumb
    lhand lfingers
    rclavicle rhumerus
    rhumerus rradius
    rradius rwrist
    rwrist rhand rthumb
    rhand rfingers
  end

#!OML:ASF F:\twosubjects\two\Thursday\Session 1\justin.ASF
:FULLY-SPECIFIED
:DEGREES
67
root 11.5584 17.9034 -16.4618 5.33585 -70.5824 2.65473
lowerback -3.88133 2.27086 -1.69109
upperback -1.02919 3.05708 1.7017
thorax 0.934586 1.52239 2.83161
lowerneck -18.0219 8.43295 -1.19773
upperneck 29.3743 13.1073 -2.41704
head 12.9001 5.17771 1.3666
rclavicle 1.11816e-014 -3.97569e-015
rhumerus -31.9948 -19.6167 -75.0694
rradius 29.9917
rwrist -3.65013
rhand -15.6917 12.2272
rfingers 7.12502
rthumb 10.4975 -17.4907
lclavicle 1.11816e-014 -3.97569e-015
lhumerus -30.4262 7.89152 85.2142
lradius 28.1031
lwrist -14.6568
lhand -0.255226 40.2544
lfingers 7.12502
lthumb 25.3459 68.59
rfemur -9.00293 -3.33559 21.7519
rtibia 24.4228
rfoot -20.8935 -14.7271
rtoes -7.7789
lfemur -4.12066 3.17743 -16.9961
ltibia 8.68921
lfoot -9.93827 -1.79275
ltoes -17.1797
68
root 11.5561 17.9033 -16.4621 6.04317 -70.5411 1.90425
lowerback -3.78899 2.2036 -1.35967
upperback -1.07368 2.95232 1.75242
thorax 0.857981 1.47103 2.68849
lowerneck -17.9032 8.56496 -1.19443
upperneck 29.3478 13.2751 -2.37354
head 12.8615 5.26227 1.40185
rclavicle 2.36057e-014 2.70347e-014
rhumerus -32.0305 -19.6731 -75.0691
rradius 29.8994
rwrist -3.38302
rhand -15.3983 12.516
rfingers 7.12502
rthumb 10.7805 -17.1874
lclavicle 2.36057e-014 2.70347e-014
lhumerus -30.5614 7.92853 85.1118
lradius 28.1671
lwrist -14.5676
lhand -0.251693 40.2814
lfingers 7.12502
lthumb 25.3493 68.6166
rfemur -8.95633 -3.35523 22.0245
rtibia 24.3757
rfoot -20.9944 -14.5953
rtoes -7.4084
lfemur -4.20177 3.16409 -16.707
ltibia 8.85874
lfoot -10.0357 -1.83832
ltoes -17.5718
69
root 11.5546 17.9034 -16.4629 6.60943 -70.4673 1.2463
lowerback -3.64925 2.07126 -1.15338
upperback -1.09873 2.76438 1.92041
thorax 0.766255 1.3778 2.73159
lowerneck -17.746 8.69448 -1.32153
upperneck 29.2308 13.4889 -2.38475
head 12.7735 5.35132 1.43899
rclavicle -2.11706e-014 1.11319e-014
rhumerus -32.0114 -19.1915 -75.1267
rradius 29.9401
rwrist -3.3686
rhand -15.4861 12.4236
rfingers 7.12502
rthumb 10.6959 -17.2841
lclavicle -2.11706e-014 1.11319e-014
lhumerus -30.7718 8.23634 85.0645
lradius 28.2586
lwrist -14.5769
lhand -0.0985317 40.0958
lfingers 7.12502
lthumb 25.496 68.4101
rfemur -8.86758 -3.37008 22.2756
rtibia 24.3345
rfoot -21.0083 -14.6039
rtoes -7.35417
lfemur -4.19252 3.11507 -16.4386
ltibia 8.94857
lfoot -10.1111 -1.9639
ltoes -16.4403
70
root 11.5519 17.9031 -16.4617 6.32661 -70.4768 1.49962
lowerback -3.58943 2.06289 -1.23733
upperback -1.06653 2.75572 1.9587
thorax 0.760433 1.3735 2.81599
lowerneck -17.8954 8.66894 -1.4473
upperneck 29.3959 13.5043 -2.36551
head 12.8611 5.33293 1.48078
rclavicle 1.04859e-014 1.82882e-014
rhumerus -32.0012 -19.0636 -75.0345
rradius 29.9745
rwrist -3.39718
rhand -15.4641 12.3949
rfingers 7.12502
rthumb 10.7171 -17.3117
lclavicle 1.04859e-014 1.82882e-014
lhumerus -30.8174 8.20736 85.1766
lradius 28.3333
lwrist -14.5
lhand 0.152046 39.9701
lfingers 7.12502
lthumb 25.736 68.2498
rfemur -8.78076 -3.2844 22.1818
rtibia 24.291
rfoot -20.9958 -14.7354
rtoes -7.28624
lfemur -4.19101 3.11092 -16.5373
ltibia 9.06258
lfoot -10.2058 -1.94246
ltoes -15.1609
71
root 11.5476 17.9046 -16.4593 5.74932 -70.4926 2.13416
lowerback -3.59977 2.17277 -1.51901
upperback -1.0797 2.9142 1.89381
thorax 0.732718 1.45378 2.913
lowerneck -18.0895 8.52433 -1.31357
upperneck 29.7443 13.3047 -2.41925
head 13.0607 5.22563 1.42944
rclavicle -6.85807e-015 9.54166e-015
rhumerus -32.1762 -19.2928 -74.797
rradius 30.0255
rwrist -3.61086
rhand -15.2467 12.501
rfingers 7.12502
rthumb 10.9268 -17.1947
lclavicle -6.85807e-015 9.54166e-015
lhumerus -30.788 7.83501 85.3531
lradius 28.3357
lwrist -14.4597
lhand 0.129468 40.1383
lfingers 7.12502
lthumb 25.7144 68.4211
rfemur -8.77887 -3.2614 21.944
rtibia 24.2827
rfoot -20.9713 -14.8051
rtoes -7.41456
lfemur -4.22536 3.10279 -16.7854
ltibia 9.12009
lfoot -10.2528 -1.93873
ltoes -14.0069
72
root 11.5455 17.9045 -16.4578 5.67605 -70.4776 2.25233
lowerback -3.63141 2.25493 -1.62446
upperback -1.11709 3.02794 1.88696
thorax 0.699845 1.51156 2.96951
lowerneck -17.8873 8.41321 -1.1409
upperneck 29.6754 13.1551 -2.67208
head 13.0269 5.15127 1.27202
rclavicle -4.34841e-014 7.95139e-016
rhumerus -32.3619 -19.2691 -74.6885
rradius 30.1363
rwrist -3.99029
rhand -15.2944 12.5301
rfingers 7.12502
rthumb 10.8808 -17.168
lclavicle -4.34841e-014 7.95139e-016
lhumerus -30.8193 7.71656 85.4559
lradius 28.3158
lwrist -14.6683
lhand -0.0307568 40.2552
lfingers 7.12502
lthumb 25.5609 68.5602
rfemur -8.84608 -3.36986 21.8978
rtibia 24.3432
rfoot -20.9467 -14.7443
rtoes -7.71185
lfemur -4.19714 3.08453 -16.8446
ltibia 9.01841
lfoot -10.2028 -1.91693
ltoes -14.7798
73
root 11.5439 17.9019 -16.457 5.99604 -70.4792 1.95525
lowerback -3.66762 2.17318 -1.60997
upperback -1.14027 2.91512 2.06912
thorax 0.69446 1.45502 3.14592
lowerneck -17.3417 8.45164 -1.41391
upperneck 29.1319 13.2893 -2.86997
head 12.6896 5.19796 1.21845
rclavicle 3.8117e-014 2.3059e-014
rhumerus -32.3031 -18.7591 -74.6447
rradius 30.1132
rwrist -4.17314
rhand -15.4593 12.4343
rfingers 7.12502
rthumb 10.7217 -17.2721
lclavicle 3.8117e-014 2.3059e-014
lhumerus -30.9772 8.11185 85.5473
lradius 28.384
lwrist -14.7487
lhand 0.0523745 40.1835
lfingers 7.12502
lthumb 25.6405 68.4771
rfemur -8.93455 -3.4693 21.9962
rtibia 24.4228
rfoot -21.0093 -14.6086
rtoes -7.4686
lfemur -4.1733 3.09819 -16.7503
ltibia 8.90788
lfoot -10.1696 -1.82529
ltoes -16.1597
74
root 11.5406 17.9 -16.4551 5.53661 -70.5146 2.43057
lowerback -3.68532 2.06932 -1.85052
upperback -1.1088 2.78393 2.18274
thorax 0.727904 1.38893 3.39504
lowerneck -17.0694 8.49833 -1.83315
upperneck 28.8602 13.4158 -2.77492
head 12.4834 5.24545 1.31457
rclavicle 9.34288e-015 8.74653e-015
rhumerus -32.1209 -18.3572 -74.6188
rradius 29.9857
rwrist -3.97554
rhand -15.6908 12.248
rfingers 7.12502
rthumb 10.4984 -17.4698
lclavicle 9.34288e-015 8.74653e-015
lhumerus -31.049 8.39454 85.6495
lradius 28.4316
lwrist -14.5312
lhand 0.16064 40.1152
lfingers 7.12502
lthumb 25.7442 68.3938
rfemur -8.94975 -3.59562 21.7993
rtibia 24.4829
rfoot -21.0643 -14.4526
rtoes -7.06182
lfemur -4.15672 3.11559 -16.9267
ltibia 8.91743
lfoot -10.2166 -1.77813
ltoes -15.9536
75
root 11.5371 17.899 -16.4553 5.16279 -70.5733 2.81226
lowerback -3.6837 2.04677 -1.9202
upperback -1.06336 2.75803 2.11239
thorax 0.77574 1.37509 3.3618
lowerneck -17.1619 8.53924 -1.90661
upperneck 28.9636 13.4579 -2.61181
head 12.5229 5.2706 1.39941
rclavicle 4.30866e-014 7.95139e-016
rhumerus -32.008 -18.3063 -74.7803
rradius 29.9357
rwrist -3.76081
rhand -15.8374 12.1724
rfingers 7.12502
rthumb 10.357 -17.5526
lclavicle 4.30866e-014 7.95139e-016
lhumerus -31.0107 8.47872 85.5493
lradius 28.4401
lwrist -14.5353
lhand 0.230355 40.193
lfingers 7.12502
lthumb 25.811 68.4618
rfemur -8.95198 -3.56377 21.6582
rtibia 24.5301
rfoot -21.0598 -14.4671
rtoes -7.34132
lfemur -4.15067 3.16131 -17.0579
ltibia 8.96873
lfoot -10.2596 -1.79245
ltoes -16.178
76
root 11.5343 17.8965 -16.4573 5.41574 -70.5977 2.56857
lowerback -3.65212 2.01433 -1.80942
upperback -1.06376 2.711 2.07283
thorax 0.768273 1.35161 3.25568
lowerneck -17.3 8.63924 -1.76849
upperneck 29.1269 13.5504 -2.51635
head 12.6188 5.32643 1.43993
rclavicle -5.66536e-015 7.95139e-015
rhumerus -31.9453 -18.3543 -74.9224
rradius 29.8651
rwrist -3.71984
rhand -15.74 12.1676
rfingers 7.12502
rthumb 10.451 -17.5526
lclavicle -5.66536e-015 7.95139e-015
lhumerus -31.0199 8.43611 85.4223
lradius 28.4558
lwrist -14.5207
lhand 0.201448 40.3757
lfingers 7.12502
lthumb 25.7833 68.6486
rfemur -8.99548 -3.45918 21.7606
rtibia 24.5846
rfoot -21.0605 -14.5743
rtoes -7.93545
lfemur -4.16746 3.19547 -16.9665
ltibia 8.98715
lfoot -10.2638 -1.76641
ltoes -17.577
77
root 11.5314 17.8938 -16.4578 5.71246 -70.5793 2.24418
lowerback -3.60627 1.98123 -1.67937
upperback -1.04951 2.66155 2.07644
thorax 0.766577 1.32662 3.18299
lowerneck -17.4669 8.69993 -1.60194
upperneck 29.269 13.6105 -2.5255
head 12.7251 5.35664 1.43433
rclavicle -1.26228e-014 -3.18055e-015
rhumerus -31.8972 -18.4047 -74.9711
rradius 29.8233
rwrist -3.73925
rhand -15.6411 12.0733
rfingers 7.12502
rthumb 10.5464 -17.6421
lclavicle -1.26228e-014 -3.18055e-015
lhumerus -30.9982 8.251 85.4106
lradius 28.4532
lwrist -14.2481
lhand 0.0721145 40.3523
lfingers 7.12502
lthumb 25.6594 68.6431
rfemur -8.99663 -3.52799 21.8801
rtibia 24.6417
rfoot -21.1038 -14.5262
rtoes -8.11366
lfemur -4.19563 3.18849 -16.8405
ltibia 9.0294
lfoot -10.2586 -1.76078
ltoes -17.3203
